<?xml version="1.0" encoding="utf-8"?>
<!-- Generator: Adobe Illustrator 28.3.0, SVG Export Plug-In . SVG Version: 6.00 Build 0)  -->
<svg version="1.1" id="Camada_1" xmlns="http://www.w3.org/2000/svg" xmlns:xlink="http://www.w3.org/1999/xlink" x="0px" y="0px"
	 viewBox="0 0 3840 3840" style="enable-background:new 0 0 3840 3840;" xml:space="preserve">
<style type="text/css">
	.st0{display:none;}
	.st1{display:inline;}
	.st2{font-family:'AauxNext-Light';}
	.st3{font-size:614.7777px;}
</style>
<g class="st0">
	<rect x="1861.05" y="976.12" width="111.37" height="1882.58"/>
	
		<rect x="1856.66" y="1098.77" transform="matrix(6.123234e-17 -1 1 6.123234e-17 -3.0316 3831.5579)" width="115.2" height="1637.05"/>
	<path class="st1" d="M1916.74,1189.72c-331.82,0-600.81,325.75-600.81,727.58s268.99,727.58,600.81,727.58
		s600.81-325.75,600.81-727.58S2248.56,1189.72,1916.74,1189.72z M1920,2566.05c-204.44,0-370.18-290.46-370.18-648.76
		s165.73-648.76,370.18-648.76s370.18,290.46,370.18,648.76S2124.44,2566.05,1920,2566.05z"/>
</g>
<g>
	<path d="M1390.56,1656.88c0-517,239.15-936.12,534.15-936.12c137.15,0,262.22,90.6,356.8,239.5l116.87-179.04
		C2261.27,671.14,2096.82,607.02,1920,607.02c-478.79,0-866.93,470.04-866.93,1049.85c0,302.01,105.31,574.23,273.89,765.76
		l156.09-239.14C1424.69,2033.46,1390.56,1852.16,1390.56,1656.88z"/>
	<path d="M2514.57,892.85l-150.79,230.78c59.94,151.31,95.08,335.09,95.08,533.25c0,517.01-239.15,936.12-534.15,936.12
		c-138.98,0-265.56-93.04-360.58-245.5l-121.46,185.89c136.9,109.55,300.96,173.34,477.34,173.34
		c478.79,0,866.93-470.04,866.93-1049.85C2786.93,1355.78,2682.25,1084.29,2514.57,892.85z"/>
</g>
<text transform="matrix(1 0 0 1 1396.4779 3320.4758)" class="st2 st3">opus</text>
</svg>
