<svg xmlns="http://www.w3.org/2000/svg" width="304.76" height="90.318" viewBox="0 0 304.76 90.318"><g transform="translate(-62.62 -293.573)"><g transform="translate(-869.97 -260.087)"><g transform="translate(1044.07 560.608)"><path d="M1057.773,622.347c0-7.548,3.332-13.666,7.443-13.666,1.911,0,3.654,1.323,4.972,3.5l1.628-2.614a10.305,10.305,0,0,0-6.666-2.543c-6.671,0-12.079,6.862-12.079,15.327a17.428,17.428,0,0,0,3.816,11.179l2.175-3.491A22.344,22.344,0,0,1,1057.773,622.347Z" transform="translate(-1053.07 -607.02)" fill="#fff"/><path d="M1457.606,892.85l-2.1,3.369a22.283,22.283,0,0,1,1.325,7.785c0,7.548-3.332,13.667-7.443,13.667-1.936,0-3.7-1.358-5.024-3.584l-1.692,2.714a10.3,10.3,0,0,0,6.651,2.531c6.671,0,12.079-6.862,12.079-15.327A17.44,17.44,0,0,0,1457.606,892.85Z" transform="translate(-1436.513 -888.867)" fill="#fff"/></g><text transform="translate(1075.87 581.66)" fill="#fff" font-size="26" font-family="AauxNext-Thin, Aaux Next" font-weight="200"><tspan x="0" y="0">opus</tspan></text></g><g transform="translate(62.62 346.171)"><path d="M29.734,3.49V8.86A23.722,23.722,0,0,0,19.4,6.108,14.291,14.291,0,0,0,9.212,10.015a12.675,12.675,0,0,0-4.142,9.6,12.683,12.683,0,0,0,4.239,9.678,15.12,15.12,0,0,0,10.616,3.88,20.087,20.087,0,0,0,9.811-2.917v5.424a21.431,21.431,0,0,1-10.22,2.508,19.256,19.256,0,0,1-13.79-5.459A17.542,17.542,0,0,1,0,19.556,17.176,17.176,0,0,1,5.629,6.592,18.9,18.9,0,0,1,19.187,1.2,27.149,27.149,0,0,1,29.734,3.49Z" transform="translate(0 -0.901)" fill="#fff"/><path d="M135.99,19.446a17.112,17.112,0,0,1,5.669-12.882A19.126,19.126,0,0,1,155.287,1.2a18.407,18.407,0,0,1,13.381,5.407,17.226,17.226,0,0,1,5.614,12.84,17.907,17.907,0,0,1-5.547,13.3,19.631,19.631,0,0,1-27.159-.04,17.882,17.882,0,0,1-5.586-13.264Zm33.252.22A12.829,12.829,0,0,0,165.1,9.988a14.244,14.244,0,0,0-10.192-3.935,13.291,13.291,0,0,0-9.853,4,12.946,12.946,0,0,0-4.1,9.611,12.756,12.756,0,0,0,4.212,9.626,14.537,14.537,0,0,0,10.315,3.935,13.329,13.329,0,0,0,9.688-4.015,12.942,12.942,0,0,0,4.074-9.544Z" transform="translate(-102.06 -0.901)" fill="#fff"/><path d="M313.17,0l25.674,26.39v-25h4.743V37.72L317.913,11.447V36.111H313.17Z" transform="translate(-235.032)" fill="#fff"/><path d="M463.682,5.57H472.1q10,0,14.881,5.287a17.313,17.313,0,0,1,4.878,12.074,17.046,17.046,0,0,1-5.042,12.1q-5.041,5.262-14.664,5.26H463.68V5.57Zm4.743,4.633V35.6h.272a49.154,49.154,0,0,0,7.959-.477,13.178,13.178,0,0,0,5.07-2.086,11.614,11.614,0,0,0,3.815-4.267,12.217,12.217,0,0,0,1.417-5.846,12.379,12.379,0,0,0-2.263-7.251,11.17,11.17,0,0,0-5.409-4.361,25.975,25.975,0,0,0-8.463-1.118h-2.4Z" transform="translate(-347.989 -4.18)" fill="#fff"/><path d="M597.94,5.79h4.743V27.13q0,4.742,2.276,7.33a8.124,8.124,0,0,0,6.445,2.59,8.5,8.5,0,0,0,6.445-2.385,9.28,9.28,0,0,0,2.3-6.719V5.79h4.743V27.622q0,6.377-3.638,10.192a12.759,12.759,0,0,1-9.688,3.815,13.249,13.249,0,0,1-9.908-3.87q-3.72-3.87-3.72-11.42Z" transform="translate(-448.75 -4.345)" fill="#fff"/><path d="M756.791,3.49V8.86a23.723,23.723,0,0,0-10.33-2.752,14.291,14.291,0,0,0-10.192,3.907,12.675,12.675,0,0,0-4.142,9.6,12.682,12.682,0,0,0,4.239,9.678,15.12,15.12,0,0,0,10.616,3.88,20.087,20.087,0,0,0,9.811-2.917v5.424a21.431,21.431,0,0,1-10.22,2.508,19.256,19.256,0,0,1-13.79-5.459,17.544,17.544,0,0,1-5.724-13.169,17.172,17.172,0,0,1,5.629-12.964A18.891,18.891,0,0,1,746.247,1.2a27.149,27.149,0,0,1,10.547,2.29Z" transform="translate(-545.654 -0.901)" fill="#fff"/><path d="M860.3,5.57h21.23v4.743h-8.286V40.291h-4.688V10.313H860.3V5.57Z" transform="translate(-645.65 -4.18)" fill="#fff"/><path d="M956.54,19.446a17.112,17.112,0,0,1,5.669-12.882A19.126,19.126,0,0,1,975.837,1.2a18.407,18.407,0,0,1,13.381,5.407,17.226,17.226,0,0,1,5.614,12.84,17.907,17.907,0,0,1-5.547,13.3,19.631,19.631,0,0,1-27.159-.04A17.882,17.882,0,0,1,956.54,19.446Zm33.252.22a12.82,12.82,0,0,0-4.142-9.678,14.243,14.243,0,0,0-10.192-3.935,13.292,13.292,0,0,0-9.853,4,12.947,12.947,0,0,0-4.1,9.611,12.747,12.747,0,0,0,4.212,9.626,14.542,14.542,0,0,0,10.315,3.935,13.325,13.325,0,0,0,9.688-4.015,12.941,12.941,0,0,0,4.074-9.544Z" transform="translate(-717.877 -0.901)" fill="#fff"/><path d="M1137.76,5.57h7.522a14.3,14.3,0,0,1,9.145,2.792,8.727,8.727,0,0,1,3.531,7.153,9.194,9.194,0,0,1-2.283,6.158q-2.283,2.668-7.121,3.76l10.088,14.858H1153.2l-9.631-14.282h-1.063V40.291h-4.743V5.57Zm4.743,4.2v12.1q10.495.217,10.492-6.078a5.281,5.281,0,0,0-1.228-3.61,6.183,6.183,0,0,0-3.271-1.909,26.724,26.724,0,0,0-6-.5Z" transform="translate(-853.882 -4.18)" fill="#fff"/></g></g></svg>