<?xml version="1.0" encoding="UTF-8"?>
<svg id="Camada_2" data-name="Camada 2" xmlns="http://www.w3.org/2000/svg" viewBox="0 0 1221.43 151.18">
  <defs>
    <style>
      .cls-1 {
        fill: #1d1d1b;
        stroke-width: 0px;
      }
    </style>
  </defs>
  <g id="Camada_1-2" data-name="Camada 1">
    <g>
      <path class="cls-1" d="M119.17,10.38v21.52c-15-7.35-28.8-11.03-41.4-11.03-16.17,0-29.78,5.22-40.85,15.66-11.07,10.44-16.6,23.26-16.6,38.46s5.66,28.43,16.99,38.79c11.32,10.37,25.51,15.55,42.55,15.55,12.38,0,25.49-3.9,39.32-11.69v21.74c-12.6,6.7-26.25,10.05-40.96,10.05-21.56,0-39.98-7.29-55.27-21.88C7.65,112.96,0,95.36,0,74.77S7.52,37.22,22.56,22.81C37.59,8.41,55.71,1.2,76.9,1.2c13.62,0,27.71,3.06,42.27,9.18Z"/>
      <path class="cls-1" d="M135.99,74.33c0-20.08,7.57-37.29,22.72-51.63,15.15-14.33,33.35-21.5,54.62-21.5s38.63,7.22,53.63,21.67c15,14.44,22.5,31.6,22.5,51.46,0,21.03-7.41,38.8-22.23,53.32-14.82,14.52-33.01,21.78-54.56,21.78s-39.36-7.31-54.29-21.94c-14.93-14.63-22.39-32.35-22.39-53.16ZM269.26,75.21c0-15.35-5.54-28.28-16.6-38.79-11.07-10.51-24.69-15.77-40.85-15.77s-28.53,5.35-39.49,16.04c-10.96,10.69-16.44,23.53-16.44,38.52s5.63,28.06,16.88,38.58,25.03,15.77,41.34,15.77c15,0,27.94-5.36,38.83-16.09,10.89-10.73,16.33-23.48,16.33-38.25Z"/>
      <path class="cls-1" d="M313.17,0l102.9,105.77V5.57h19.01v145.61l-102.9-105.3v98.85h-19.01V0Z"/>
      <path class="cls-1" d="M463.69,5.57h33.75c26.72,0,46.6,7.06,59.64,21.19,13.03,14.13,19.55,30.26,19.55,48.39s-6.74,34.45-20.21,48.5c-13.47,14.06-33.06,21.08-58.77,21.08h-33.97V5.57ZM482.7,24.14v101.8h1.09c14.13,0,24.76-.64,31.9-1.91,7.14-1.27,13.91-4.06,20.32-8.36,6.41-4.3,11.51-10,15.29-17.1,3.79-7.1,5.68-14.91,5.68-23.43,0-10.7-3.02-20.39-9.07-29.06-6.04-8.67-13.27-14.49-21.68-17.48-8.41-2.99-19.72-4.48-33.92-4.48h-9.61Z"/>
      <path class="cls-1" d="M597.94,5.79h19.01v85.53c0,12.67,3.04,22.47,9.12,29.38,6.08,6.92,14.69,10.38,25.83,10.38s19.68-3.18,25.83-9.56c6.15-6.37,9.23-15.35,9.23-26.93V5.79h19.01v87.5c0,17.04-4.86,30.66-14.58,40.85-9.72,10.2-22.67,15.29-38.83,15.29s-29.77-5.17-39.71-15.51-14.91-25.6-14.91-45.77V5.79Z"/>
      <path class="cls-1" d="M846.22,10.38v21.52c-15-7.35-28.8-11.03-41.4-11.03-16.17,0-29.78,5.22-40.85,15.66-11.07,10.44-16.6,23.26-16.6,38.46s5.66,28.43,16.99,38.79c11.32,10.37,25.51,15.55,42.55,15.55,12.38,0,25.49-3.9,39.32-11.69v21.74c-12.6,6.7-26.25,10.05-40.96,10.05-21.56,0-39.98-7.29-55.27-21.88-15.29-14.59-22.94-32.18-22.94-52.78s7.52-37.55,22.56-51.96c15.04-14.41,33.15-21.61,54.34-21.61,13.62,0,27.71,3.06,42.27,9.18Z"/>
      <path class="cls-1" d="M860.31,5.57h85.09v19.01h-33.21v120.15h-18.79V24.58h-33.1V5.57Z"/>
      <path class="cls-1" d="M956.54,74.33c0-20.08,7.57-37.29,22.72-51.63,15.15-14.33,33.35-21.5,54.62-21.5s38.63,7.22,53.63,21.67c15,14.44,22.5,31.6,22.5,51.46,0,21.03-7.41,38.8-22.23,53.32-14.82,14.52-33.01,21.78-54.56,21.78s-39.36-7.31-54.29-21.94c-14.93-14.63-22.39-32.35-22.39-53.16ZM1089.81,75.21c0-15.35-5.53-28.28-16.6-38.79-11.07-10.51-24.69-15.77-40.85-15.77s-28.53,5.35-39.49,16.04c-10.96,10.69-16.44,23.53-16.44,38.52s5.62,28.06,16.88,38.58,25.03,15.77,41.34,15.77c15,0,27.95-5.36,38.83-16.09,10.89-10.73,16.33-23.48,16.33-38.25Z"/>
      <path class="cls-1" d="M1137.76,5.57h30.15c15,0,27.22,3.73,36.65,11.19,9.43,7.46,14.15,17.02,14.15,28.67,0,9.32-3.05,17.55-9.15,24.68-6.1,7.13-15.62,12.16-28.54,15.07l40.43,59.55h-21.8l-38.6-57.24h-4.26v57.24h-19.01V5.57ZM1156.77,22.39v48.5c28.04.58,42.05-7.54,42.05-24.36,0-5.9-1.64-10.72-4.92-14.47-3.28-3.75-7.65-6.3-13.11-7.65-5.46-1.35-13.47-2.02-24.03-2.02Z"/>
    </g>
  </g>
</svg>