<?xml version="1.0" encoding="UTF-8"?>
<svg id="Camada_2" data-name="Camada 2" xmlns="http://www.w3.org/2000/svg" viewBox="0 0 1480.66 252.91">
  <defs>
    <style>
      .cls-1 {
        fill: #1d1d1b;
        stroke-width: 0px;
      }
    </style>
  </defs>
  <g id="Camada_1-2" data-name="Camada 1">
    <g>
      <path class="cls-1" d="M198.96,0c23.16,0,44.16,1.48,63.02,4.43,18.86,2.96,34.67,6.84,47.44,11.66,12.77,4.82,23.93,10.73,33.48,17.74,9.55,7.01,17.01,14.01,22.38,21.02,5.37,7.01,9.73,14.67,13.07,22.99,3.34,8.32,5.49,15.76,6.45,22.33.96,6.57,1.43,13.47,1.43,20.69v9.85c0,7.01-.48,13.79-1.43,20.36-.96,6.57-3.1,14.07-6.45,22.5-3.34,8.43-7.64,16.2-12.89,23.32-5.25,7.12-12.71,14.23-22.38,21.35-9.67,7.12-20.83,13.14-33.48,18.06s-28.47,8.92-47.44,11.99c-18.98,3.07-40.04,4.6-63.2,4.6h-11.32c-23.16,0-44.28-1.53-63.38-4.6-19.1-3.06-34.97-7.06-47.63-11.99s-23.81-10.95-33.48-18.06c-9.67-7.12-17.19-14.23-22.56-21.35-5.37-7.12-9.67-14.89-12.89-23.32-3.22-8.43-5.31-15.93-6.27-22.5s-1.43-13.36-1.43-20.36v-9.85c0-7.23.48-14.07,1.43-20.53s3.04-13.9,6.27-22.33,7.52-16.15,12.89-23.16c5.37-7.01,12.83-14.01,22.38-21.02,9.55-7.01,20.71-12.92,33.48-17.74,12.77-4.82,28.71-8.7,47.8-11.66,19.1-2.96,40.22-4.43,63.38-4.43h11.32ZM298.86,123.17c0-6.13-.84-11.93-2.51-17.41-1.67-5.47-4.89-11.17-9.67-17.08-4.78-5.91-10.98-10.95-18.62-15.11-7.64-4.16-18.02-7.61-31.15-10.35-10.8-2.25-23.05-3.58-36.75-3.98-2.96-.09-9.2-.11-11.25-.07-67.69,1.22-101.54,22.55-101.54,63.99v3.94c0,7.88,1.49,15.33,4.48,22.33,2.98,7.01,8.06,14.01,15.22,21.02,7.16,7.01,18.26,12.59,33.3,16.75,13.89,3.84,30.52,5.91,49.9,6.2,1.61.03,6,0,8.52-.05,17.95-.44,33.46-2.43,46.54-5.98,14.92-4.05,26.08-9.52,33.48-16.42,7.4-6.9,12.59-13.85,15.58-20.86,2.98-7.01,4.48-14.45,4.48-22.33v-4.6Z"/>
      <path class="cls-1" d="M501.11,167.18v81.46h-83.43V4.27h199.81c82.84,0,124.25,26.5,124.25,79.48v3.29c0,53.43-41.42,80.14-124.25,80.14h-116.38ZM501.11,112.33h114.94c25.78,0,38.67-8.54,38.67-25.62v-.98c0-17.3-12.89-25.95-38.67-25.95h-114.94v52.55Z"/>
      <path class="cls-1" d="M1111.34,2.61v117.58c0,10.21-1.25,20.52-3.75,30.94-2.5,10.42-7.43,21.66-14.8,33.71-7.37,12.05-16.76,22.64-28.17,31.75-11.41,9.12-27.16,16.72-47.25,22.8-20.09,6.08-43.09,9.12-69.01,9.12h-12.84c-19.73,0-37.75-1.58-54.03-4.73-16.29-3.15-30.01-7.33-41.19-12.54s-21.04-11.51-29.6-18.89c-8.56-7.38-15.34-14.88-20.33-22.47-4.99-7.6-9.09-15.74-12.3-24.43-3.21-8.69-5.35-16.61-6.42-23.78-1.07-7.17-1.6-14.33-1.6-21.5V2.61h83.45v113.02c0,8.69,1.25,16.78,3.75,24.27s6.71,14.88,12.66,22.15c5.94,7.27,15.04,13.03,27.28,17.26,12.24,4.23,26.92,6.35,44.04,6.35s31.32-2.12,43.33-6.35c12.01-4.23,21.04-9.99,27.1-17.26,6.06-7.27,10.34-14.66,12.84-22.15,2.5-7.49,3.74-15.58,3.74-24.27V2.61h83.1Z"/>
      <path class="cls-1" d="M1299.83,252.9c-26.5,0-49.65-2.08-69.47-6.24-19.81-4.16-35.09-9.2-45.83-15.11-10.74-5.91-19.28-13.08-25.6-21.51-6.33-8.43-10.39-16.04-12.17-22.83-1.79-6.79-2.69-14.01-2.69-21.68v-3.61h87.01c1.91,25.84,20.71,38.76,71.55,38.76h19.36c16.71,0,23.79-.71,34.77-2.14s18.98-3.45,23.99-6.08c5.01-2.63,8.36-5.31,10.03-8.05,1.67-2.74,2.51-5.97,2.51-9.69,0-5.25-1.43-9.41-4.3-12.48-2.86-3.07-9.55-5.75-20.05-8.05-10.5-2.3-25.66-3.67-45.48-4.11l-26.25-.56-19.58-.42c-86.66-2.19-129.98-26.06-129.98-71.6v-2.96c0-7.88,1.07-15.16,3.22-21.84,2.15-6.68,6.45-13.36,12.89-20.03,6.45-6.68,14.86-12.32,25.25-16.91,10.38-4.6,24.41-8.38,42.08-11.33,17.67-2.96,38.2-4.43,61.59-4.43h24.71c24.35,0,45.83,1.53,64.45,4.6,18.62,3.06,33.48,7.01,44.58,11.82,11.1,4.82,20.17,10.73,27.21,17.74,7.04,7.01,11.88,13.96,14.5,20.86,2.62,6.9,3.94,14.29,3.94,22.17v3.28h-86.66c-.49-2.63-1.14-4.87-1.97-6.73-.84-1.86-2.81-4.32-5.91-7.39-3.1-3.07-7.16-5.58-12.17-7.55-5.01-1.97-12.47-3.72-22.38-5.25-9.91-1.53-17.49-2.3-30.62-2.3h-12.44c-20.05,0-32.68,1.15-43.42,3.45-10.74,2.3-17.25,4.71-19.52,7.23-2.27,2.52-3.4,5.97-3.4,10.34s1.25,7.56,3.76,10.18c2.51,2.63,8.47,5.04,17.9,7.23s22.74,3.39,39.93,3.61l19.61.29,25.15.37c49.65.88,85.52,7.06,107.6,18.56s33.12,29.51,33.12,54.03v4.6c0,8.98-1.07,17.03-3.22,24.14-2.15,7.12-6.56,14.4-13.25,21.84-6.68,7.44-15.58,13.69-26.68,18.72-11.1,5.04-26.26,9.14-45.48,12.32-19.22,3.17-41.72,4.76-67.5,4.76h-24.7Z"/>
    </g>
  </g>
</svg>